<svg xmlns="http://www.w3.org/2000/svg" xmlns:xlink="http://www.w3.org/1999/xlink" id="processonSvg1000" viewBox="27.0 16.0 1266.0 442.0" width="1266.0" height="442.0"><defs id="ProcessOnDefs1001"><marker id="ProcessOnMarker1096" markerUnits="userSpaceOnUse" orient="auto" markerWidth="16.23606797749979" markerHeight="10.550836550532098" viewBox="-1.0 -1.3763819204711736 16.23606797749979 10.550836550532098" refX="-1.0" refY="3.8990363547948754"><path id="ProcessOnPath1097" d="M12.0 3.8990363547948754L0.0 7.798072709589751V0.0Z" stroke="#323232" stroke-width="2.0" fill="#323232" transform="matrix(1.0,0.0,0.0,1.0,0.0,0.0)"/></marker><marker id="ProcessOnMarker1100" markerUnits="userSpaceOnUse" orient="auto" markerWidth="16.23606797749979" markerHeight="10.550836550532098" viewBox="-1.0 -1.3763819204711736 16.23606797749979 10.550836550532098" refX="-1.0" refY="3.8990363547948754"><path id="ProcessOnPath1101" d="M12.0 3.8990363547948754L0.0 7.798072709589751V0.0Z" stroke="#323232" stroke-width="2.0" fill="#323232" transform="matrix(1.0,0.0,0.0,1.0,0.0,0.0)"/></marker><marker id="ProcessOnMarker1104" markerUnits="userSpaceOnUse" orient="auto" markerWidth="16.23606797749979" markerHeight="10.550836550532098" viewBox="-1.0 -1.3763819204711736 16.23606797749979 10.550836550532098" refX="-1.0" refY="3.8990363547948754"><path id="ProcessOnPath1105" d="M12.0 3.8990363547948754L0.0 7.798072709589751V0.0Z" stroke="#323232" stroke-width="2.0" fill="#323232" transform="matrix(1.0,0.0,0.0,1.0,0.0,0.0)"/></marker><marker id="ProcessOnMarker1108" markerUnits="userSpaceOnUse" orient="auto" markerWidth="16.23606797749979" markerHeight="10.550836550532098" viewBox="-1.0 -1.3763819204711736 16.23606797749979 10.550836550532098" refX="-1.0" refY="3.8990363547948754"><path id="ProcessOnPath1109" d="M12.0 3.8990363547948754L0.0 7.798072709589751V0.0Z" stroke="#323232" stroke-width="2.0" fill="#323232" transform="matrix(1.0,0.0,0.0,1.0,0.0,0.0)"/></marker><marker id="ProcessOnMarker1112" markerUnits="userSpaceOnUse" orient="auto" markerWidth="16.23606797749979" markerHeight="10.550836550532098" viewBox="-1.0 -1.3763819204711736 16.23606797749979 10.550836550532098" refX="-1.0" refY="3.8990363547948754"><path id="ProcessOnPath1113" d="M12.0 3.8990363547948754L0.0 7.798072709589751V0.0Z" stroke="#323232" stroke-width="2.0" fill="#323232" transform="matrix(1.0,0.0,0.0,1.0,0.0,0.0)"/></marker></defs><g id="ProcessOnG1002"><path id="ProcessOnPath1003" d="M27.0 16.0H1293.0V458.0H27.0V16.0Z" fill="none"/><g id="ProcessOnG1004"><g id="ProcessOnG1005" transform="matrix(1.0,0.0,0.0,1.0,47.0,36.0)" opacity="1.0"><path id="ProcessOnPath1006" d="M0.0 0.0L1226.0 0.0L1226.0 402.0L0.0 402.0Z" stroke="#323232" stroke-width="2.0" stroke-dasharray="none" opacity="1.0" fill="#ffffff"/></g><g id="ProcessOnG1007" transform="matrix(1.0,0.0,0.0,1.0,121.5,62.0)" opacity="1.0"><path id="ProcessOnPath1008" d="M0.0 0.0L100.0 0.0L100.0 70.0L0.0 70.0Z" stroke="#323232" stroke-width="2.0" stroke-dasharray="none" opacity="1.0" fill="#ffffff"/><g id="ProcessOnG1009" transform="matrix(1.0,0.0,0.0,1.0,10.0,18.75)"><text id="ProcessOnText1010" fill="#000000" font-size="13" x="39.0" y="13.325" font-family="Comic Sans MS" font-weight="normal" font-style="normal" text-decoration="none" family="Comic Sans MS" text-anchor="middle" size="13">负载均衡：</text><text id="ProcessOnText1011" fill="#000000" font-size="13" x="39.0" y="29.575" font-family="Comic Sans MS" font-weight="normal" font-style="normal" text-decoration="none" family="Comic Sans MS" text-anchor="middle" size="13">Rebalance</text></g></g><g id="ProcessOnG1012" transform="matrix(1.0,0.0,0.0,1.0,381.0,62.0)" opacity="1.0"><path id="ProcessOnPath1013" d="M0.0 0.0L100.0 0.0L100.0 70.0L0.0 70.0Z" stroke="#323232" stroke-width="2.0" stroke-dasharray="none" opacity="1.0" fill="#ffffff"/><g id="ProcessOnG1014" transform="matrix(1.0,0.0,0.0,1.0,10.0,26.875)"><text id="ProcessOnText1015" fill="#000000" font-size="13" x="39.0" y="13.325" font-family="Comic Sans MS" font-weight="normal" font-style="normal" text-decoration="none" family="Comic Sans MS" text-anchor="middle" size="13">PullMessage</text></g></g><g id="ProcessOnG1016" transform="matrix(1.0,0.0,0.0,1.0,576.5,62.0)" opacity="1.0"><path id="ProcessOnPath1017" d="M0.0 0.0L167.0 0.0L167.0 70.0L0.0 70.0Z" stroke="#323232" stroke-width="2.0" stroke-dasharray="none" opacity="1.0" fill="#ffffff"/><g id="ProcessOnG1018" transform="matrix(1.0,0.0,0.0,1.0,10.0,12.5)"><text id="ProcessOnText1019" fill="#000000" font-size="12" x="72.5" y="12.3" font-family="Comic Sans MS" font-weight="normal" font-style="normal" text-decoration="none" family="Comic Sans MS" text-anchor="middle" size="12">记录消费到的offset位置：</text><text id="ProcessOnText1020" fill="#000000" font-size="12" x="72.5" y="27.3" font-family="Comic Sans MS" font-weight="normal" font-style="normal" text-decoration="none" family="Comic Sans MS" text-anchor="middle" size="12"></text><text id="ProcessOnText1021" fill="#000000" font-size="12" x="72.5" y="42.3" font-family="Comic Sans MS" font-weight="normal" font-style="normal" text-decoration="none" family="Comic Sans MS" text-anchor="middle" size="12">OffsetStore</text></g></g><g id="ProcessOnG1022" transform="matrix(1.0,0.0,0.0,1.0,848.0,58.0)" opacity="1.0"><path id="ProcessOnPath1023" d="M0.0 0.0L100.0 0.0L100.0 70.0L0.0 70.0Z" stroke="#323232" stroke-width="2.0" stroke-dasharray="none" opacity="1.0" fill="#ffffff"/><g id="ProcessOnG1024" transform="matrix(1.0,0.0,0.0,1.0,10.0,26.875)"><text id="ProcessOnText1025" fill="#000000" font-size="13" x="39.0" y="13.325" font-family="Comic Sans MS" font-weight="normal" font-style="normal" text-decoration="none" family="Comic Sans MS" text-anchor="middle" size="13">update</text></g></g><g id="ProcessOnG1026" transform="matrix(1.0,0.0,0.0,1.0,1094.0,58.0)" opacity="1.0"><path id="ProcessOnPath1027" d="M0.0 0.0L100.0 0.0L100.0 70.0L0.0 70.0Z" stroke="#323232" stroke-width="2.0" stroke-dasharray="none" opacity="1.0" fill="#ffffff"/><g id="ProcessOnG1028" transform="matrix(1.0,0.0,0.0,1.0,10.0,18.75)"><text id="ProcessOnText1029" fill="#000000" font-size="13" x="39.0" y="13.325" font-family="Comic Sans MS" font-weight="normal" font-style="normal" text-decoration="none" family="Comic Sans MS" text-anchor="middle" size="13">Netty </text><text id="ProcessOnText1030" fill="#000000" font-size="13" x="39.0" y="29.575" font-family="Comic Sans MS" font-weight="normal" font-style="normal" text-decoration="none" family="Comic Sans MS" text-anchor="middle" size="13">relevant</text></g></g><g id="ProcessOnG1031" transform="matrix(1.0,0.0,0.0,1.0,64.0,260.0)" opacity="1.0"><path id="ProcessOnPath1032" d="M0.0 0.0L215.0 0.0L215.0 35.0L0.0 35.0Z" stroke="#323232" stroke-width="2.0" stroke-dasharray="none" opacity="1.0" fill="#ffffff"/><g id="ProcessOnG1033" transform="matrix(1.0,0.0,0.0,1.0,10.0,10.0)"><text id="ProcessOnText1034" fill="#000000" font-size="12" x="96.5" y="12.3" font-family="Comic Sans MS" font-weight="normal" font-style="normal" text-decoration="none" family="Comic Sans MS" text-anchor="middle" size="12">AllocateMessageQueueStrategy</text></g></g><g id="ProcessOnG1035" transform="matrix(1.0,0.0,0.0,1.0,64.0,165.0)" opacity="1.0"><path id="ProcessOnPath1036" d="M0.0 0.0L215.0 0.0L215.0 35.0L0.0 35.0Z" stroke="#323232" stroke-width="2.0" stroke-dasharray="none" opacity="1.0" fill="#ffffff"/><g id="ProcessOnG1037" transform="matrix(1.0,0.0,0.0,1.0,10.0,10.0)"><text id="ProcessOnText1038" fill="#000000" font-size="12" x="96.5" y="12.3" font-family="Comic Sans MS" font-weight="normal" font-style="normal" text-decoration="none" family="Comic Sans MS" text-anchor="middle" size="12">RebalanceImpl</text></g></g><g id="ProcessOnG1039" transform="matrix(1.0,0.0,0.0,1.0,64.0,211.0)" opacity="1.0"><path id="ProcessOnPath1040" d="M0.0 0.0L215.0 0.0L215.0 35.0L0.0 35.0Z" stroke="#323232" stroke-width="2.0" stroke-dasharray="none" opacity="1.0" fill="#ffffff"/><g id="ProcessOnG1041" transform="matrix(1.0,0.0,0.0,1.0,10.0,10.0)"><text id="ProcessOnText1042" fill="#000000" font-size="12" x="96.5" y="12.3" font-family="Comic Sans MS" font-weight="normal" font-style="normal" text-decoration="none" family="Comic Sans MS" text-anchor="middle" size="12">RebalanceService</text></g></g><g id="ProcessOnG1043" transform="matrix(1.0,0.0,0.0,1.0,323.5,159.0)" opacity="1.0"><path id="ProcessOnPath1044" d="M0.0 0.0L215.0 0.0L215.0 35.0L0.0 35.0Z" stroke="#323232" stroke-width="2.0" stroke-dasharray="none" opacity="1.0" fill="#ffffff"/><g id="ProcessOnG1045" transform="matrix(1.0,0.0,0.0,1.0,10.0,10.0)"><text id="ProcessOnText1046" fill="#000000" font-size="12" x="96.5" y="12.3" font-family="Comic Sans MS" font-weight="normal" font-style="normal" text-decoration="none" family="Comic Sans MS" text-anchor="middle" size="12">PullMessageService</text></g></g><g id="ProcessOnG1047" transform="matrix(1.0,0.0,0.0,1.0,323.5,208.0)" opacity="1.0"><path id="ProcessOnPath1048" d="M0.0 0.0L215.0 0.0L215.0 35.0L0.0 35.0Z" stroke="#323232" stroke-width="2.0" stroke-dasharray="none" opacity="1.0" fill="#ffffff"/><g id="ProcessOnG1049" transform="matrix(1.0,0.0,0.0,1.0,10.0,10.0)"><text id="ProcessOnText1050" fill="#000000" font-size="12" x="96.5" y="12.3" font-family="Comic Sans MS" font-weight="normal" font-style="normal" text-decoration="none" family="Comic Sans MS" text-anchor="middle" size="12">PullAPIWrapper</text></g></g><g id="ProcessOnG1051" transform="matrix(1.0,0.0,0.0,1.0,327.0,255.0)" opacity="1.0"><path id="ProcessOnPath1052" d="M0.0 0.0L215.0 0.0L215.0 35.0L0.0 35.0Z" stroke="#323232" stroke-width="2.0" stroke-dasharray="none" opacity="1.0" fill="#ffffff"/><g id="ProcessOnG1053" transform="matrix(1.0,0.0,0.0,1.0,10.0,10.0)"><text id="ProcessOnText1054" fill="#000000" font-size="12" x="96.5" y="12.3" font-family="Comic Sans MS" font-weight="normal" font-style="normal" text-decoration="none" family="Comic Sans MS" text-anchor="middle" size="12">PullCallback</text></g></g><g id="ProcessOnG1055" transform="matrix(1.0,0.0,0.0,1.0,327.0,306.0)" opacity="1.0"><path id="ProcessOnPath1056" d="M0.0 0.0L215.0 0.0L215.0 35.0L0.0 35.0Z" stroke="#323232" stroke-width="2.0" stroke-dasharray="none" opacity="1.0" fill="#ffffff"/><g id="ProcessOnG1057" transform="matrix(1.0,0.0,0.0,1.0,10.0,2.5)"><text id="ProcessOnText1058" fill="#000000" font-size="12" x="96.5" y="12.3" font-family="Comic Sans MS" font-weight="normal" font-style="normal" text-decoration="none" family="Comic Sans MS" text-anchor="middle" size="12">ConsumeMessageConcurrentlyServi</text><text id="ProcessOnText1059" fill="#000000" font-size="12" x="96.5" y="27.3" font-family="Comic Sans MS" font-weight="normal" font-style="normal" text-decoration="none" family="Comic Sans MS" text-anchor="middle" size="12">ce.processConsumeReuslt</text></g></g><g id="ProcessOnG1060" transform="matrix(1.0,0.0,0.0,1.0,330.0,362.0)" opacity="1.0"><path id="ProcessOnPath1061" d="M0.0 0.0L215.0 0.0L215.0 35.0L0.0 35.0Z" stroke="#323232" stroke-width="2.0" stroke-dasharray="none" opacity="1.0" fill="#ffffff"/><g id="ProcessOnG1062" transform="matrix(1.0,0.0,0.0,1.0,10.0,2.5)"><text id="ProcessOnText1063" fill="#000000" font-size="12" x="96.5" y="12.3" font-family="Comic Sans MS" font-weight="normal" font-style="normal" text-decoration="none" family="Comic Sans MS" text-anchor="middle" size="12">ConsumeMessageConcurrentlyServi</text><text id="ProcessOnText1064" fill="#000000" font-size="12" x="96.5" y="27.3" font-family="Comic Sans MS" font-weight="normal" font-style="normal" text-decoration="none" family="Comic Sans MS" text-anchor="middle" size="12">ce.consumeRequest</text></g></g><g id="ProcessOnG1065" transform="matrix(1.0,0.0,0.0,1.0,552.5,159.0)" opacity="1.0"><path id="ProcessOnPath1066" d="M0.0 0.0L215.0 0.0L215.0 35.0L0.0 35.0Z" stroke="#323232" stroke-width="2.0" stroke-dasharray="none" opacity="1.0" fill="#ffffff"/><g id="ProcessOnG1067" transform="matrix(1.0,0.0,0.0,1.0,10.0,10.0)"><text id="ProcessOnText1068" fill="#000000" font-size="12" x="96.5" y="12.3" font-family="Comic Sans MS" font-weight="normal" font-style="normal" text-decoration="none" family="Comic Sans MS" text-anchor="middle" size="12">RemoteBrokerOffsetStore</text></g></g><g id="ProcessOnG1069" transform="matrix(1.0,0.0,0.0,1.0,552.5,211.0)" opacity="1.0"><path id="ProcessOnPath1070" d="M0.0 0.0L215.0 0.0L215.0 35.0L0.0 35.0Z" stroke="#323232" stroke-width="2.0" stroke-dasharray="none" opacity="1.0" fill="#ffffff"/><g id="ProcessOnG1071" transform="matrix(1.0,0.0,0.0,1.0,10.0,10.0)"><text id="ProcessOnText1072" fill="#000000" font-size="12" x="96.5" y="12.3" font-family="Comic Sans MS" font-weight="normal" font-style="normal" text-decoration="none" family="Comic Sans MS" text-anchor="middle" size="12">LocalFileOffsetStore</text></g></g><g id="ProcessOnG1073" transform="matrix(1.0,0.0,0.0,1.0,790.5,162.0)" opacity="1.0"><path id="ProcessOnPath1074" d="M0.0 0.0L215.0 0.0L215.0 35.0L0.0 35.0Z" stroke="#323232" stroke-width="2.0" stroke-dasharray="none" opacity="1.0" fill="#ffffff"/><g id="ProcessOnG1075" transform="matrix(1.0,0.0,0.0,1.0,10.0,10.0)"><text id="ProcessOnText1076" fill="#000000" font-size="12" x="96.5" y="12.3" font-family="Comic Sans MS" font-weight="normal" font-style="normal" text-decoration="none" family="Comic Sans MS" text-anchor="middle" size="12">更新namesrv</text></g></g><g id="ProcessOnG1077" transform="matrix(1.0,0.0,0.0,1.0,790.5,211.0)" opacity="1.0"><path id="ProcessOnPath1078" d="M0.0 0.0L215.0 0.0L215.0 35.0L0.0 35.0Z" stroke="#323232" stroke-width="2.0" stroke-dasharray="none" opacity="1.0" fill="#ffffff"/><g id="ProcessOnG1079" transform="matrix(1.0,0.0,0.0,1.0,10.0,10.0)"><text id="ProcessOnText1080" fill="#000000" font-size="12" x="96.5" y="12.3" font-family="Comic Sans MS" font-weight="normal" font-style="normal" text-decoration="none" family="Comic Sans MS" text-anchor="middle" size="12">更新topicRouteInfoFromServer</text></g></g><g id="ProcessOnG1081" transform="matrix(1.0,0.0,0.0,1.0,790.5,255.0)" opacity="1.0"><path id="ProcessOnPath1082" d="M0.0 0.0L215.0 0.0L215.0 35.0L0.0 35.0Z" stroke="#323232" stroke-width="2.0" stroke-dasharray="none" opacity="1.0" fill="#ffffff"/><g id="ProcessOnG1083" transform="matrix(1.0,0.0,0.0,1.0,10.0,10.0)"><text id="ProcessOnText1084" fill="#000000" font-size="12" x="96.5" y="12.3" font-family="Comic Sans MS" font-weight="normal" font-style="normal" text-decoration="none" family="Comic Sans MS" text-anchor="middle" size="12">更新sendHeartBeart- 注册consumer</text></g></g><g id="ProcessOnG1085" transform="matrix(1.0,0.0,0.0,1.0,788.0,313.0)" opacity="1.0"><path id="ProcessOnPath1086" d="M0.0 0.0L215.0 0.0L215.0 57.0L0.0 57.0Z" stroke="#323232" stroke-width="2.0" stroke-dasharray="none" opacity="1.0" fill="#ffffff"/><g id="ProcessOnG1087" transform="matrix(1.0,0.0,0.0,1.0,10.0,13.5)"><text id="ProcessOnText1088" fill="#000000" font-size="12" x="96.5" y="12.3" font-family="Comic Sans MS" font-weight="normal" font-style="normal" text-decoration="none" family="Comic Sans MS" text-anchor="middle" size="12">更新persisitAllConsumerSetInterval</text><text id="ProcessOnText1089" fill="#000000" font-size="12" x="96.5" y="27.3" font-family="Comic Sans MS" font-weight="normal" font-style="normal" text-decoration="none" family="Comic Sans MS" text-anchor="middle" size="12">:更新offsetStore</text></g></g><g id="ProcessOnG1090" transform="matrix(1.0,0.0,0.0,1.0,1036.5,165.0)" opacity="1.0"><path id="ProcessOnPath1091" d="M0.0 0.0L215.0 0.0L215.0 35.0L0.0 35.0Z" stroke="#323232" stroke-width="2.0" stroke-dasharray="none" opacity="1.0" fill="#ffffff"/><g id="ProcessOnG1092" transform="matrix(1.0,0.0,0.0,1.0,10.0,10.0)"><text id="ProcessOnText1093" fill="#000000" font-size="12" x="96.5" y="12.3" font-family="Comic Sans MS" font-weight="normal" font-style="normal" text-decoration="none" family="Comic Sans MS" text-anchor="middle" size="12">MQClientAPIImpl</text></g></g><g id="ProcessOnG1094"><path id="ProcessOnPath1095" d="M171.5 132.0L171.5 148.5L171.5 148.5L171.5 149.7639320225002" stroke="#323232" stroke-width="2.0" stroke-dasharray="none" fill="none" marker-end="url(#ProcessOnMarker1096)"/></g><g id="ProcessOnG1098"><path id="ProcessOnPath1099" d="M431.0 132.0L431.0 145.5L431.0 145.5L431.0 146.5" stroke="#323232" stroke-width="2.0" stroke-dasharray="none" fill="none" marker-end="url(#ProcessOnMarker1100)"/></g><g id="ProcessOnG1102"><path id="ProcessOnPath1103" d="M660.0 132.0L660.0 145.5L660.0 145.5L660.0 146.5" stroke="#323232" stroke-width="2.0" stroke-dasharray="none" fill="none" marker-end="url(#ProcessOnMarker1104)"/></g><g id="ProcessOnG1106"><path id="ProcessOnPath1107" d="M898.0 128.0L898.0 145.0L898.0 145.0L898.0 146.7639320225002" stroke="#323232" stroke-width="2.0" stroke-dasharray="none" fill="none" marker-end="url(#ProcessOnMarker1108)"/></g><g id="ProcessOnG1110"><path id="ProcessOnPath1111" d="M1144.0 128.0L1144.0 146.5L1144.0 146.5L1144.0 149.7639320225002" stroke="#323232" stroke-width="2.0" stroke-dasharray="none" fill="none" marker-end="url(#ProcessOnMarker1112)"/></g></g></g></svg>